<?xml version="1.0" encoding="utf-8"?>
<!-- Generator: Adobe Illustrator 25.4.1, SVG Export Plug-In . SVG Version: 6.00 Build 0)  -->
<svg version="1.1"
	 id="Ebene_1" inkscape:version="0.92.2 (unknown)" sodipodi:docname="c64.svg" xmlns:cc="http://creativecommons.org/ns#" xmlns:dc="http://purl.org/dc/elements/1.1/" xmlns:inkscape="http://www.inkscape.org/namespaces/inkscape" xmlns:rdf="http://www.w3.org/1999/02/22-rdf-syntax-ns#" xmlns:sodipodi="http://sodipodi.sourceforge.net/DTD/sodipodi-0.dtd" xmlns:svg="http://www.w3.org/2000/svg"
	 xmlns="http://www.w3.org/2000/svg" xmlns:xlink="http://www.w3.org/1999/xlink" x="0px" y="0px" viewBox="0 0 290.6 129"
	 enable-background="new 0 0 290.6 129" xml:space="preserve">
<sodipodi:namedview  bordercolor="#666666" borderopacity="1" fit-margin-bottom="0" fit-margin-left="0" fit-margin-right="0" fit-margin-top="0" gridtolerance="10" guidetolerance="10" id="namedview21" inkscape:current-layer="Ebene_1" inkscape:cx="-26.691574" inkscape:cy="40.85" inkscape:pageopacity="0" inkscape:pageshadow="2" inkscape:window-height="480" inkscape:window-maximized="0" inkscape:window-width="698" inkscape:window-x="0" inkscape:window-y="0" inkscape:zoom="0.49772106" objecttolerance="10" pagecolor="#ffffff" showgrid="false">
	</sodipodi:namedview>
<path fill="#FFFFFF" d="M144.1,69.6h34.6l-15.1,15.2h-19.4L144.1,69.6z"/>
<path fill="#FFFFFF" d="M144,103.8h34.6l-15.1-15.2H144L144,103.8z"/>
<path fill="#FFFFFF" d="M12.2,48.2l10.8,76.7h26.8l10.8-76.8H44.7l-8.2,60l-8.2-60h-16C12.3,48.1,12.3,48.3,12.2,48.2L12.2,48.2z"/>
<path fill="#FFFFFF" d="M191.2,75.8h13.7c0-12.6,0-15.6,3.4-15.6c0.5-0.1,2.4,0.1,2.4,0.1c3.3-0.1,2.8,3.3,2.9,18.1
	c0.2,5.7-3.2,6.9-9.1,9.8c-8,4.7-13.5,6.9-13.2,14l-0.1,21.5h36.6l0-11.6h-22.4l-0.3-7.1c0-2,1.3-2.4,11.1-8.2
	c13.1-7.8,11.3-7.5,11.3-21c-0.3-23.2,1.7-25.9-18.1-25.9c-18.4,0-17.8,2.7-18.1,25.7L191.2,75.8L191.2,75.8z"/>
<path fill="#FFFFFF" d="M260.1,48.4c-21,0-18.3,4.4-18.3,37c0,0.6,0,1.2,0,1.7c0,32.6-2.6,37,18.3,37c20.9,0,18.3-4.4,18.3-37
	c0-0.6,0-1.2,0-1.7C278.4,52.9,281,48.4,260.1,48.4L260.1,48.4z M260.1,59.3c6,0,6,2.7,6.1,27.3c-0.1,24.6-0.1,27.3-6.2,27.3
	c-6.1,0-6.1-2.6-5.9-27.3C254.1,62.1,254.2,59.3,260.1,59.3L260.1,59.3z"/>
<path fill="#FFFFFF" d="M144,123.9c-3.3,0.8-6.7,1.2-10.1,1.2c-20-0.5-37.9-15-40.2-34.7c-0.2-1.3-0.2-2.6-0.2-3.9
	c0.6-22.8,20.2-38.3,40.4-38.4c3.4,0,6.7,0.4,10.1,1.2l0,18c-3.1-1.5-6.4-2.3-10.1-2.3c-11.9,0.1-22.2,9.2-22.3,21.5
	c0.4,12.3,12.3,21.1,22.3,21.3c3.6,0.1,7-0.7,10.1-2.2L144,123.9z"/>
<path fill="#FFFFFF" d="M69.7,124.9h15.7l0.2-76.8H69.6v76.6C69.6,124.9,69.6,124.9,69.7,124.9L69.7,124.9z"/>
<path fill="#FFFFFF" d="M30.1,1.7c-9.9,0-17.8,8-17.8,17.8c0,9.9,8,17.8,17.8,17.8c1.9,0,3.7-0.3,5.4-0.8v-8.9
	c-1.5,0.8-3.2,1.4-5,1.4c-5.4,0-9.8-4.2-9.8-9.4c0-5.2,4.4-9.4,9.8-9.4c1.9,0,3.6,0.5,5,1.4V2.6C33.8,2,32,1.7,30.1,1.7L30.1,1.7z"
	/>
<path fill="#FFFFFF" d="M43,19h-7.3v-6.2h13.3L43,19z"/>
<path fill="#FFFFFF" d="M43,20.2h-7.3v6.2h13.3L43,20.2z"/>
<path fill-rule="evenodd" clip-rule="evenodd" fill="#FFFFFF" d="M42.6,8.4C42.2,8.8,41.7,9,41.2,9c-0.5,0-1-0.2-1.4-0.6
	c-0.4-0.4-0.6-0.9-0.6-1.4c0-1.1,0.9-2,2-2c0.5,0,1,0.2,1.4,0.6C43,6,43.2,6.5,43.2,7C43.2,7.6,43,8.1,42.6,8.4z M40,5.8
	c-0.3,0.3-0.5,0.7-0.5,1.2c0,0.4,0.2,0.9,0.5,1.2c0.3,0.3,0.7,0.5,1.2,0.5c0.9,0,1.7-0.8,1.7-1.7c0-0.4-0.2-0.9-0.5-1.2
	c-0.3-0.3-0.7-0.5-1.2-0.5C40.7,5.3,40.3,5.5,40,5.8z"/>
<path fill-rule="evenodd" clip-rule="evenodd" fill="#FFFFFF" d="M42.1,7.9C42.1,7.9,42.1,7.9,42.1,7.9L42.2,8v0.1h-0.4l0,0
	c0,0,0,0,0-0.1c0,0,0,0,0,0c0,0,0-0.1,0-0.2l0-0.4c0-0.1,0-0.2-0.1-0.2c0,0-0.1,0-0.2,0h-0.6v0.9h-0.4V5.9h1c0.2,0,0.3,0,0.4,0.1
	C42,6,42.1,6.2,42.1,6.5c0,0.1,0,0.3-0.1,0.3c0,0.1-0.1,0.1-0.2,0.2C41.9,7,42,7.1,42,7.1c0,0.1,0.1,0.2,0.1,0.3l0,0.3
	C42.1,7.8,42.1,7.8,42.1,7.9z M41.6,6.8c0.1,0,0.1-0.1,0.1-0.3v0c0-0.1,0-0.2-0.1-0.3c-0.1,0-0.1,0-0.2,0h-0.7v0.6h0.6
	C41.5,6.8,41.6,6.8,41.6,6.8z"/>
<path fill="#FFFFFF" d="M78.1,28.7c2.2,0,3.9-0.6,5.3-1.7c1.4-1.2,2.1-2.8,2.1-4.9c0-2.1-0.7-3.8-2.1-4.9c-1.4-1.2-3.1-1.7-5.3-1.7
	c-2.2,0-3.9,0.6-5.3,1.7c-1.4,1.1-2.1,2.8-2.1,4.9c0,2.1,0.7,3.8,2.1,4.9S76,28.7,78.1,28.7z M78.1,25.7c-1,0-1.7-0.4-2.2-1.1
	c-0.5-0.7-0.7-1.5-0.6-2.5c0-1,0.2-1.8,0.6-2.5c0.4-0.7,1.2-1,2.2-1.1c1,0,1.7,0.4,2.2,1.1c0.5,0.7,0.7,1.5,0.6,2.5
	c0,1-0.2,1.8-0.6,2.5C79.9,25.3,79.1,25.6,78.1,25.7z"/>
<path fill="#FFFFFF" d="M87.3,28.4h4.4v-5.4c0-1.3,0.2-2.4,0.6-3c0.4-0.6,1-1,1.8-1c0.6,0,1.1,0.3,1.3,0.7s0.4,1.1,0.4,1.8v6.8h4.4
	v-5.4c0-1.3,0.2-2.4,0.6-3c0.4-0.6,1-1,1.8-1c0.6,0,1.1,0.3,1.3,0.7c0.3,0.5,0.4,1.1,0.4,1.8v6.8h4.4V21c0-1.7-0.3-3.1-0.9-4.1
	c-0.6-1-1.8-1.5-3.6-1.5c-0.9,0-1.8,0.2-2.6,0.6c-0.8,0.4-1.4,1-1.9,1.9c-0.3-0.8-0.9-1.4-1.6-1.9c-0.7-0.4-1.5-0.6-2.4-0.6
	c-1,0-1.9,0.2-2.7,0.6c-0.8,0.4-1.4,1.1-1.9,2h0v-2.3h-4L87.3,28.4z"/>
<path fill="#FFFFFF" d="M111.4,28.4h4.4v-5.4c0-1.3,0.2-2.4,0.6-3c0.4-0.6,1-1,1.8-1c0.6,0,1.1,0.3,1.3,0.7c0.3,0.5,0.4,1.1,0.4,1.8
	v6.8h4.4v-5.4c0-1.3,0.2-2.4,0.6-3c0.4-0.6,1-1,1.8-1c0.6,0,1.1,0.3,1.3,0.7c0.3,0.5,0.4,1.1,0.4,1.8v6.8h4.4V21
	c0-1.7-0.3-3.1-0.9-4.1c-0.6-1-1.8-1.5-3.6-1.5c-0.9,0-1.8,0.2-2.6,0.6c-0.8,0.4-1.4,1-1.9,1.9c-0.3-0.8-0.9-1.4-1.6-1.9
	c-0.7-0.4-1.5-0.6-2.4-0.6c-1,0-1.9,0.2-2.7,0.6c-0.8,0.4-1.4,1.1-1.9,2h0v-2.3h-4L111.4,28.4z"/>
<path fill="#FFFFFF" d="M142.2,28.7c2.2,0,3.9-0.6,5.3-1.7c1.4-1.2,2.1-2.8,2.1-4.9c0-2.1-0.7-3.8-2.1-4.9c-1.4-1.2-3.1-1.7-5.3-1.7
	c-2.2,0-3.9,0.6-5.3,1.7c-1.4,1.1-2.1,2.8-2.1,4.9c0,2.1,0.7,3.8,2.1,4.9C138.3,28.1,140.1,28.7,142.2,28.7z M142.2,25.7
	c-1,0-1.7-0.4-2.2-1.1c-0.5-0.7-0.7-1.5-0.6-2.5c0-1,0.2-1.8,0.6-2.5c0.4-0.7,1.2-1,2.2-1.1c1,0,1.7,0.4,2.2,1.1
	c0.5,0.7,0.7,1.5,0.6,2.5c0,1-0.2,1.8-0.6,2.5C143.9,25.3,143.2,25.6,142.2,25.7z"/>
<path fill="#FFFFFF" d="M165.1,10.1h-4.4v7.2h0c-0.6-0.7-1.2-1.2-1.9-1.5s-1.6-0.4-2.4-0.4c-1.8,0.1-3.1,0.7-4,2
	c-0.9,1.3-1.4,2.8-1.4,4.4c0,1.9,0.5,3.5,1.5,4.8c1,1.3,2.4,2,4.3,2c1,0,1.9-0.3,2.7-0.7c0.8-0.5,1.3-1.1,1.6-1.8h0v2.3h4.1
	L165.1,10.1z M155.3,21.9c0-0.9,0.2-1.6,0.7-2.2c0.5-0.6,1.1-0.9,2-1c0.8,0,1.5,0.3,1.9,1c0.5,0.6,0.7,1.4,0.7,2.4
	c0,1-0.3,1.7-0.8,2.3c-0.5,0.6-1.1,0.9-1.9,0.9c-0.8,0-1.5-0.3-1.9-1C155.6,23.8,155.3,23,155.3,21.9L155.3,21.9z"/>
<path fill="#FFFFFF" d="M174.1,28.7c2.2,0,3.9-0.6,5.3-1.7c1.4-1.2,2.1-2.8,2.1-4.9c0-2.1-0.7-3.8-2.1-4.9c-1.4-1.2-3.1-1.7-5.3-1.7
	s-3.9,0.6-5.3,1.7c-1.4,1.2-2.1,2.8-2.1,4.9c0,2.1,0.7,3.8,2.1,4.9C170.2,28.1,172,28.7,174.1,28.7z M174.1,25.7
	c-1,0-1.7-0.4-2.2-1.1c-0.4-0.7-0.7-1.5-0.6-2.5c0-1,0.2-1.8,0.6-2.5c0.4-0.7,1.2-1,2.2-1.1c1,0,1.7,0.4,2.2,1.1
	c0.4,0.7,0.7,1.5,0.6,2.5c0,1-0.2,1.8-0.6,2.5C175.9,25.3,175.1,25.6,174.1,25.7z"/>
<path fill="#FFFFFF" d="M192.6,15.6c-0.2,0-0.5-0.1-0.7-0.1c-0.3,0-0.5,0-0.8,0c-1,0-1.7,0.3-2.3,0.7c-0.6,0.5-1.1,1.1-1.5,1.9h0
	v-2.3h-4v12.7h4.4v-5.4c0-1.3,0.3-2.2,0.8-2.9c0.6-0.7,1.3-1,2.4-1c0.3,0,0.5,0,0.7,0c0.3,0,0.5,0,0.7,0.1L192.6,15.6z"/>
<path fill="#FFFFFF" d="M206.4,23.4v-0.8c0-1.9-0.5-3.6-1.4-5c-1-1.4-2.6-2.1-5-2.2c-2,0-3.6,0.6-4.9,1.7c-1.3,1.2-1.9,2.8-1.9,4.9
	c0,2.1,0.7,3.8,2.1,4.9c1.4,1.2,3.1,1.7,5.3,1.8c0.8,0,1.6,0,2.4-0.2c0.8-0.1,1.6-0.3,2.2-0.6v-3.1c-0.6,0.3-1.3,0.6-2,0.7
	c-0.6,0.2-1.3,0.2-1.9,0.2c-1.1,0-1.9-0.2-2.6-0.6c-0.6-0.4-1-1-1.2-1.9L206.4,23.4z M197.5,20.9c0-0.7,0.3-1.4,0.6-1.9
	c0.4-0.5,1-0.8,1.8-0.8c0.9,0,1.5,0.3,1.9,0.8c0.4,0.5,0.6,1.1,0.6,1.9H197.5z"/>
<path fill="#FFFFFF" d="M61.4,28.6c-1.9-0.5-3.4-1.4-4.6-2.7c-1.2-1.3-1.8-2.6-2.1-4.7c-0.6-4.2,1.2-8.1,4.7-9.8
	c1.8-0.9,4.2-1.3,6.5-1.3c1.5,0,2.8,0.3,4,0.5l-0.4,3.8c0,0-0.3-0.1-1.2-0.3c-0.8-0.2-1.6-0.3-2.5-0.3c-1.6,0-3.2,0.4-4.3,1.3
	c-2.5,1.9-2.5,6.9,0.1,8.9c1.6,1.3,4.4,1.7,6.9,1.1l1.2-0.3l0.3,3.8c-0.7,0.2-2.3,0.5-4.2,0.5C63.3,29,62.5,28.9,61.4,28.6
	L61.4,28.6z"/>
<path fill-rule="evenodd" clip-rule="evenodd" fill="#FFFFFF" d="M209.8,17.7c-0.3,0.3-0.6,0.4-1,0.4c-0.4,0-0.7-0.1-1-0.4
	c-0.3-0.3-0.4-0.6-0.4-1c0-0.8,0.6-1.4,1.4-1.4c0.4,0,0.7,0.1,1,0.4c0.3,0.3,0.4,0.6,0.4,1C210.2,17.1,210,17.4,209.8,17.7z
	 M208,15.9c-0.2,0.2-0.3,0.5-0.3,0.8c0,0.3,0.1,0.6,0.3,0.8c0.2,0.2,0.5,0.3,0.8,0.3c0.6,0,1.2-0.5,1.2-1.2c0-0.3-0.1-0.6-0.3-0.8
	c-0.2-0.2-0.5-0.3-0.8-0.3C208.5,15.5,208.2,15.7,208,15.9z"/>
<path fill-rule="evenodd" clip-rule="evenodd" fill="#FFFFFF" d="M209.4,17.3C209.4,17.3,209.4,17.3,209.4,17.3L209.4,17.3
	L209.4,17.3l0.1,0.2h-0.3l0,0c0,0,0,0,0,0c0,0,0,0,0,0c0,0,0-0.1,0-0.1l0-0.2c0-0.1,0-0.1-0.1-0.2c0,0-0.1,0-0.2,0h-0.4v0.6h-0.3
	v-1.5h0.7c0.1,0,0.2,0,0.3,0.1c0.1,0.1,0.2,0.2,0.2,0.4c0,0.1,0,0.2-0.1,0.2c0,0-0.1,0.1-0.1,0.1c0,0,0.1,0,0.1,0.1
	c0,0,0.1,0.1,0.1,0.2l0,0.2C209.4,17.2,209.4,17.2,209.4,17.3z M209.1,16.5c0,0,0.1-0.1,0.1-0.2l0,0c0-0.1,0-0.2-0.1-0.2
	c0,0-0.1,0-0.1,0h-0.5v0.4h0.4C209,16.6,209,16.6,209.1,16.5z"/>
</svg>
