<?xml version="1.0" encoding="utf-8"?>
<!-- Generator: Adobe Illustrator 26.0.3, SVG Export Plug-In . SVG Version: 6.00 Build 0)  -->
<svg version="1.1"
	 id="svg8" xmlns:cc="http://creativecommons.org/ns#" xmlns:dc="http://purl.org/dc/elements/1.1/" xmlns:inkscape="http://www.inkscape.org/namespaces/inkscape" xmlns:osb="http://www.openswatchbook.org/uri/2009/osb" xmlns:rdf="http://www.w3.org/1999/02/22-rdf-syntax-ns#" xmlns:sodipodi="http://sodipodi.sourceforge.net/DTD/sodipodi-0.dtd" xmlns:svg="http://www.w3.org/2000/svg"
	 xmlns="http://www.w3.org/2000/svg" xmlns:xlink="http://www.w3.org/1999/xlink" x="0px" y="0px" viewBox="0 0 308.2 59.1"
	 enable-background="new 0 0 308.2 59.1" xml:space="preserve">
<sodipodi:namedview  bordercolor="#666666" borderopacity="1.0" id="base" inkscape:current-layer="layer1" inkscape:cx="259.12229" inkscape:cy="-20.354183" inkscape:document-units="mm" inkscape:pagecheckerboard="true" inkscape:pageopacity="0.0" inkscape:pageshadow="2" inkscape:window-height="1051" inkscape:window-maximized="1" inkscape:window-width="1920" inkscape:window-x="-9" inkscape:window-y="-9" inkscape:zoom="1.979899" pagecolor="#ffffff" showgrid="false">
	</sodipodi:namedview>
<g id="layer1" transform="translate(0,-271.5)" inkscape:groupmode="layer" inkscape:label="Ebene 1">
	<g id="layer1-7" transform="matrix(1,0,0,0.91957068,-0.0089221,22.920314)" inkscape:label="Ebene 1">
		<g id="layer1-58" transform="matrix(0.23536094,0,0,0.42581489,-0.3845778,197.54345)" inkscape:label="Ebene 1">
			<path id="path2016" inkscape:connector-curvature="0" fill="#FFFFFF" d="M45,306.7c-0.4-0.8-0.6-27.2-0.4-58.8l0.4-57.4h41.7
				h41.7l12.1,26.3c6.6,14.5,12.4,26.3,12.9,26.3c0.5,0,6.4-11.4,13.3-25.3c6.8-13.9,13.2-25.9,14-26.6c1.2-1,10.7-1.3,41.3-1.1
				l39.7,0.3V249v58.5h-33.2h-33.2l-0.5-34l-0.5-34l-16.9,34l-16.9,34l-22.7,0.3c-13.4,0.2-23.5-0.1-24.6-0.8c-1-0.6-9-16-17.6-34.2
				l-15.7-33.2l-0.8,33.9l-0.8,33.9l-16.3,0.3C49.9,308,45.6,307.7,45,306.7L45,306.7z M76.1,262.5l0.1-42.3l5.3,10.6
				c2.9,5.8,12.1,24.9,20.5,42.3l15.2,31.6h20.2h20.2l21.6-43.9l21.6-43.9l0.2,43.9l0.2,43.9h28.5h28.5V249v-55.8h-36.3h-36.3
				l-4.7,8.8c-2.6,4.8-9.6,18.7-15.5,30.8c-6,12.1-11.3,21.7-11.9,21.3c-0.6-0.4-6.2-12-12.4-25.8c-6.3-13.7-12.6-27.3-14-30
				l-2.6-5.1H87.6H50.9l-1.1,8.6c-0.6,4.8-0.6,29.9,0,55.8l1.2,47.2h12.5h12.5L76.1,262.5z M284,306.6c-0.4-0.8-0.6-8.8-0.4-17.8
				l0.4-16.4h31.7h31.7v17.5v17.5l-31.3,0.3C291.4,308,284.6,307.7,284,306.6L284,306.6z M343.4,290.4v-14.4h-28.5h-28.5v14.4v14.4
				h28.5h28.5V290.4z M379.2,306.4c-8.2-2-17.4-8.2-21.8-14.8c-3.6-5.4-3.7-5.6-3.7-53.3v-47.9h33.2h33.2l0.8,44.4
				c0.7,40.8,1,44.5,3.6,46.3c2.5,1.7,6.1,1.9,32,1.9c21.8,0,29.7-0.3,31.2-1.4c1.6-1.1,2.2-11.4,2.8-46.3l0.8-44.9H508h16.6
				l0.4,44.1c0.3,28.7-0.2,46.6-1.3,51.2c-2.5,9.9-8.6,16.2-19.3,19.5l-8.3,2.6l-55.4,0C397.7,307.9,384,307.6,379.2,306.4
				L379.2,306.4z M497.3,303.7c7.7-1.4,14.7-5.5,19.1-11c3.4-4.3,3.5-5.2,3.9-52l0.5-47.6l-12.3,0.3l-12.3,0.3l-0.4,44.1
				c-0.4,39.3-0.7,44.3-3,46c-2.4,1.8-5.3,1.9-35.8,1.7l-33.2-0.3l-3.3-3c-3.3-2.9-3.3-3.8-2.7-37.3c0.3-18.9,0.1-38.2-0.6-43
				l-1.1-8.7h-28.2h-28.2l-1.2,9.3c-0.6,5.1-0.7,25.2-0.1,44.6c1.2,40.6,2,43.6,13.1,51.1c3.7,2.5,9,4.9,11.9,5.5
				C390.5,305,489.8,305.1,497.3,303.7L497.3,303.7z M545.1,306.6c-0.4-0.8-0.6-8.8-0.4-17.8l0.4-16.4h31.7h31.7v17.5v17.5
				l-31.3,0.3C552.5,308,545.7,307.7,545.1,306.6L545.1,306.6z M604.5,290.4v-14.4h-28.5h-28.5v14.4v14.4h28.5h28.5V290.4z
				 M637.2,306.4c-8.2-2-15.8-7.1-20.3-13.7c-3.6-5.4-3.7-6-3.7-42.7c0-26.7,0.6-38.5,2-41.6c2.6-5.7,7.7-10.6,15.2-14.7l6.1-3.3
				h68.3h68.3v11.7v11.7l-44.3,0.5c-24.4,0.3-45.2,0.9-46.3,1.4c-1.5,0.7-2,8.4-2,32.5c0,37.2-1,35.2,16.9,35.2
				c15.3,0,16.3-0.9,16.3-14.1v-10.2l-15.4-0.3l-15.4-0.3v-11.7v-11.7H732H781v36.2v36.2l-68.8,0.2
				C656.8,307.9,642.1,307.6,637.2,306.4L637.2,306.4z M777.1,271.3v-33.5h-45.2h-45.2l0.5,9.3l0.5,9.3l15.4,0.3l15.4,0.3v12.6
				c0,12.4-0.1,12.7-4.2,14.9c-6.1,3.2-28.3,3.2-34.4,0l-4.2-2.2V249v-33.3l4.2-2.2c4-2.1,6.1-2.2,46.7-2.2h42.5v-9v-9h-61.8
				c-52.2,0-62.7,0.3-67.6,1.6c-11.5,3.2-17.5,9-21,20.2c-1.5,4.8-1.7,14.5-0.8,38.8c1.2,35.6,2.1,38.9,11.9,45.2
				c8.7,5.6,11.3,5.8,82,5.8l65.3,0V271.3z M799.9,306.6c-0.4-0.8-0.6-8.8-0.4-17.8l0.4-16.4h31.7h31.7v17.5v17.5l-31.3,0.3
				C807.3,308,800.6,307.7,799.9,306.6L799.9,306.6z M859.4,290.4v-14.4h-27.7H804v14.4v14.4h27.7h27.7V290.4z M872.7,306.7
				c-0.4-0.7-0.6-27.2-0.4-58.8l0.4-57.4h68.1h68.1v11.7v11.7l-34.4,0.3l-34.4,0.3v10.1v10.1l32.8,0.3l32.8,0.3v11.7v11.7l-32.8,0.3
				l-32.8,0.3v12.2v12.2l35.2,0.3l35.2,0.3v11.7v11.7l-68.5,0.3C888.1,307.9,873.4,307.7,872.7,306.7L872.7,306.7z M1005,295.8v-9
				h-35.6h-35.6v-14.9v-14.9h34h34v-9.6v-9.6h-34h-34v-13.3v-13.3h34.8h34.8v-9v-9h-64.1h-64.1V249v55.8h64.9h64.9L1005,295.8z
				 M1027.8,306.6c-0.4-0.8-0.6-8.8-0.4-17.8l0.4-16.4h31.7h31.7v17.5v17.5l-31.3,0.3C1035.2,308,1028.5,307.7,1027.8,306.6
				L1027.8,306.6z M1087.3,290.4v-14.4h-28.5h-28.5v14.4v14.4h28.5h28.5L1087.3,290.4z M1099.1,306.7c-0.4-0.8-0.6-27.2-0.4-58.8
				l0.4-57.4l41.3-0.3c31.9-0.2,41.7,0,42.9,1.1c0.9,0.7,13.2,18.3,27.5,39l26,37.7l0.8-38.8l0.8-38.8h16.6h16.6V249v58.5h-41.9
				h-41.9l-27-39.1l-27-39.1l-0.8,39.1l-0.8,39.1l-16.3,0.3C1104,308,1099.7,307.7,1099.1,306.7L1099.1,306.7z M1128.8,259l0.4-45.8
				l31.5,45.8l31.5,45.8h37.7h37.7v-56.4v-56.4H1255h-12.7l-0.1,45.5l-0.1,45.5l-3.1-3.9c-1.7-2.2-14.1-20-27.7-39.7
				c-13.5-19.7-26.3-38.1-28.5-41l-4-5.2h-38h-38V249v55.8h12.6h12.6L1128.8,259z"/>
			<path id="path2018" inkscape:connector-curvature="0" fill="#FFFFFF" stroke="#FFFFFF" stroke-width="10.7987" d="M51.9,295.9
				c-0.7-4.4-1-29.2-0.7-54.9l0.6-46.9l35.7-0.4l35.7-0.4l14.3,30.8c7.9,16.9,15.1,30.8,16,30.8c0.9,0,8.7-13.8,17.3-30.7l15.6-30.7
				h35h35v55.3V304H230h-26.5l-1.9-44l-1.9-44l-21.4,44l-21.4,44l-19.3,0l-19.3,0L99,263.9c-10.6-22.1-20.4-41.3-21.8-42.7
				c-2.1-2-2.6,6.2-2.7,40.1L74.4,304H63.8H53.2L51.9,295.9z"/>
			<path id="path2020" inkscape:connector-curvature="0" fill="#FFFFFF" stroke="#FFFFFF" stroke-width="10.7987" d="M383.7,302.4
				c-8.9-1.9-19.4-10.7-21.5-17.9c-0.9-3.2-1.7-24.8-1.7-48.1l0-42.3l27-0.4l27-0.4l1.4,9.5c0.8,5.2,1.4,25.2,1.4,44.3
				c0,25,0.7,35.3,2.6,36.7c1.8,1.3,13.2,1.8,37.6,1.8h35l2.1-3.9c1.2-2.2,2.1-22.2,2.1-45.3c0-38.4,0.3-41.4,3.8-41.4
				c2.1,0,7.5-0.5,12.1-1l8.4-1l-1.3,48.2c-1.4,52.8-1.1,51.5-15.2,59c-5.6,3-9.1,3.2-59.9,3.5C414.7,303.7,387.4,303.2,383.7,302.4
				L383.7,302.4z"/>
			<path id="path2022" inkscape:connector-curvature="0" fill="#FFFFFF" stroke="#FFFFFF" stroke-width="10.7987" d="M286.5,290.2
				v-13.8h27.9h27.9v13.8V304h-27.9h-27.9V290.2z"/>
			<path id="path2024" inkscape:connector-curvature="0" fill="#FFFFFF" stroke="#FFFFFF" stroke-width="10.7987" d="M547.9,290.2
				v-13.8h27.9h27.9v13.8V304h-27.9h-27.9V290.2z"/>
			<path id="path2028" inkscape:connector-curvature="0" fill="#FFFFFF" stroke="#FFFFFF" stroke-width="10.7987" d="M642.6,302.5
				c-9.2-1.6-16.8-6.7-20-13.7c-1.7-3.6-2.6-17.5-2.7-40.1c-0.2-39.5,1.4-44.8,15.7-51.1c7.3-3.3,10.2-3.4,70.4-4l62.7-0.6v8.5v8.5
				l-43.6,0.5c-33,0.4-44.5,1-47.1,2.6c-3.1,1.8-3.5,6.4-3.5,36.3v34.1l5.5,1.8c3,1,11.5,1.8,19,1.8c18.5,0,20.6-1.8,20.6-18.2
				v-12.6h-14.7h-14.7l-1.4-7.1c-0.7-3.9-1.4-8.1-1.4-9.2c0-1.7,8.3-2.1,43.9-2.1h43.9v33v33l-62.7-0.2
				C677.9,303.8,646.5,303.1,642.6,302.5z"/>
			<path id="path2030" inkscape:connector-curvature="0" fill="#FFFFFF" stroke="#FFFFFF" stroke-width="10.7987" d="M805.1,290.2
				v-13.8h26.8h26.8v13.8V304h-26.8h-26.8V290.2z"/>
			<path id="path2032" inkscape:connector-curvature="0" fill="#FFFFFF" stroke="#FFFFFF" stroke-width="10.7987" d="M875.8,248.7
				v-55.3H939h63.2v8.5v8.5h-34.3h-34.3v13.8v13.8h33.2h33.2v9.2v9.2h-33.2h-33.2v15.4v15.4H969h35.4v8.5v8.5h-64.3h-64.3
				L875.8,248.7z"/>
			<path id="path2034" inkscape:connector-curvature="0" fill="#FFFFFF" stroke="#FFFFFF" stroke-width="10.7987" d="M1032.2,290.2
				v-13.8h26.8h26.8v13.8V304H1059h-26.8V290.2z"/>
			<path id="path2040" inkscape:connector-curvature="0" fill="#FFFFFF" stroke="#FFFFFF" stroke-width="15.2716" d="M1105.2,249
				v-54.3h36.4h36.4l31,44.6c17.1,24.5,32.1,44.6,33.3,44.6s2.3-20.5,2.3-45.6v-45.6h10.6h10.6V248v55.4h-36.6h-36.6l-30.7-45.6
				c-16.9-25.1-31.8-45.6-33.1-45.6c-1.3,0-2.4,20.5-2.4,45.6v45.6h-10.6h-10.6L1105.2,249z"/>
		</g>
	</g>
</g>
</svg>
